<?xml version="1.0" encoding="UTF-8"?>
<svg version="1.1" xmlns="http://www.w3.org/2000/svg" width="300" height="300">
<path d="M0 0 C0.77730469 0.64453125 1.55460938 1.2890625 2.35546875 1.953125 C8.36135753 7.03900672 13.20704738 12.7751635 18 19 C19.00353516 20.28003906 19.00353516 20.28003906 20.02734375 21.5859375 C42.83420251 51.6638938 51.92006165 89.49391341 47.17773438 126.82177734 C43.02321852 155.15357595 31.88674157 180.39053474 13 202 C12.35546875 202.77730469 11.7109375 203.55460938 11.046875 204.35546875 C5.96099328 210.36135753 0.2248365 215.20704738 -6 220 C-7.28003906 221.00353516 -7.28003906 221.00353516 -8.5859375 222.02734375 C-38.6638938 244.83420251 -76.49391341 253.92006165 -113.82177734 249.17773438 C-142.15357595 245.02321852 -167.39053474 233.88674157 -189 215 C-190.16595703 214.03320312 -190.16595703 214.03320312 -191.35546875 213.046875 C-197.36135753 207.96099328 -202.20704738 202.2248365 -207 196 C-207.66902344 195.14664063 -208.33804688 194.29328125 -209.02734375 193.4140625 C-231.83420251 163.3361062 -240.92006165 125.50608659 -236.17773438 88.17822266 C-232.02321852 59.84642405 -220.88674157 34.60946526 -202 13 C-201.03320312 11.83404297 -201.03320312 11.83404297 -200.046875 10.64453125 C-194.96099328 4.63864247 -189.2248365 -0.20704738 -183 -5 C-182.14664063 -5.66902344 -181.29328125 -6.33804688 -180.4140625 -7.02734375 C-127.06720089 -47.47804212 -50.10391295 -43.79097974 0 0 Z " fill="#3E64FF" transform="translate(245,43)"/>
<path d="M0 0 C14.147178 11.60218301 22.26414055 24.55607249 25.4375 42.75 C25.625 46.4375 25.625 46.4375 25.4375 49.75 C22.73594217 52.45155783 21.32956633 52.00869932 17.55078125 52.0246582 C16.31610107 52.03419022 15.0814209 52.04372223 13.80932617 52.05354309 C12.45621716 52.0532817 11.10310813 52.05234481 9.75 52.05078125 C8.36759308 52.05466659 6.98518736 52.05900092 5.6027832 52.06376648 C2.70422497 52.07123333 -0.19421148 52.07093386 -3.09277344 52.06567383 C-6.8121998 52.05987462 -10.53112892 52.07681817 -14.25047302 52.1000185 C-17.10545784 52.11472974 -19.96032213 52.11563122 -22.81533813 52.11250877 C-24.18690985 52.11302318 -25.55848811 52.11828328 -26.93002319 52.12832069 C-28.84523745 52.14061757 -30.76055189 52.13197652 -32.67578125 52.12231445 C-33.76673096 52.12294388 -34.85768066 52.1235733 -35.98168945 52.1242218 C-36.83335693 52.00072861 -37.68502441 51.87723541 -38.5625 51.75 C-40.35639167 49.05916249 -41.06939115 47.34066794 -41.9375 44.3125 C-43.16593204 40.52892933 -44.2717544 38.16966588 -47.5625 35.75 C-51.33065715 33.95067236 -54.39809975 33.45343521 -58.5625 33.4375 C-59.573125 33.42074219 -60.58375 33.40398437 -61.625 33.38671875 C-65.00227805 33.80438744 -66.83924053 34.73963568 -69.5625 36.75 C-72.4541543 41.13733756 -73.20225578 44.54056007 -72.5625 49.75 C-69.82384272 56.84561204 -65.27747666 59.5422588 -58.5625 62.75 C-49.25130915 66.85282605 -39.70897014 70.36394731 -30.11987305 73.75390625 C-8.26621711 81.50787757 13.64811083 91.23687301 24.375 113.3125 C30.99434322 129.4728276 29.2548118 145.97095744 23.22265625 161.97265625 C15.59124994 178.76175012 2.12938916 189.56957387 -14.5625 196.75 C-41.5583492 206.81568949 -73.23867415 205.17859148 -99.48046875 193.4453125 C-117.85181195 184.06081684 -129.86385551 170.37121961 -136.3125 150.6875 C-137.66596876 145.8459489 -138.7570218 140.79830396 -138.5625 135.75 C-137.9025 134.76 -137.2425 133.77 -136.5625 132.75 C-134.06434631 132.36904907 -134.06434631 132.36904907 -130.87524414 132.36181641 C-129.08812767 132.34763168 -129.08812767 132.34763168 -127.26490784 132.3331604 C-125.97221481 132.33923309 -124.67952179 132.34530579 -123.34765625 132.3515625 C-122.01248516 132.34954211 -120.67731514 132.34663096 -119.34214783 132.34286499 C-116.54187529 132.3384384 -113.74188961 132.34488199 -110.94165039 132.35888672 C-107.35231924 132.3759628 -103.76366181 132.36615036 -100.17435551 132.34816933 C-97.41624379 132.3373261 -94.65829163 132.34078048 -91.90017509 132.3485527 C-89.93312519 132.35152776 -87.96606908 132.34241542 -85.9990387 132.3331604 C-84.80447556 132.34261688 -83.60991241 132.35207336 -82.37915039 132.36181641 C-81.32595108 132.36420319 -80.27275177 132.36658997 -79.18763733 132.36904907 C-76.5625 132.75 -76.5625 132.75 -74.74729919 134.13021851 C-73.21933077 136.21915896 -72.77584447 138.11116452 -72.1875 140.625 C-70.87375171 145.2534363 -69.54880284 147.82671125 -65.5625 150.75 C-59.4824152 153.9596585 -53.61497256 154.764628 -46.94140625 153.09375 C-42.44886188 151.58102098 -40.10399478 150.53903525 -37.375 146.5625 C-36.20758016 141.08460689 -36.27947247 136.42279479 -38.72753906 131.32299805 C-45.80805075 121.39464351 -65.40059636 117.72776178 -76.46191406 113.95043945 C-90.93197196 108.98706911 -105.73488937 103.77142379 -117.5625 93.75 C-119.0475 92.6671875 -119.0475 92.6671875 -120.5625 91.5625 C-129.53371785 83.88685312 -135.56657746 72.29577581 -137.5625 60.75 C-138.29632901 49.76257836 -138.75528926 38.0873942 -134.5625 27.75 C-134.2840625 26.99203125 -134.005625 26.2340625 -133.71875 25.453125 C-126.5623145 7.56203624 -112.58162962 -2.37498053 -95.6875 -10.0625 C-66.70895173 -21.59953597 -25.39783918 -18.97187987 0 0 Z " fill="#FDFDFE" transform="translate(210.5625,57.25)"/>
</svg>
